<?xml version="1.0" encoding="UTF-8" standalone="no"?><svg xmlns="http://www.w3.org/2000/svg" xmlns:xlink="http://www.w3.org/1999/xlink" contentScriptType="application/ecmascript" contentStyleType="text/css" height="2561px" preserveAspectRatio="none" style="width:1040px;height:2561px;" version="1.1" viewBox="0 0 1040 2561" width="1040px" zoomAndPan="magnify"><defs><filter height="300%" id="f9y4k03acdqq" width="300%" x="-1" y="-1"><feGaussianBlur result="blurOut" stdDeviation="2.0"/><feColorMatrix in="blurOut" result="blurOut2" type="matrix" values="0 0 0 0 0 0 0 0 0 0 0 0 0 0 0 0 0 0 .4 0"/><feOffset dx="4.0" dy="4.0" in="blurOut2" result="blurOut3"/><feBlend in="SourceGraphic" in2="blurOut3" mode="normal"/></filter></defs><g><rect fill="#F0F8FF" height="2536.2969" style="stroke: #F0F8FF; stroke-width: 1.0;" width="423" x="10" y="12.7451"/><ellipse cx="162" cy="43.6982" fill="#000000" filter="url(#f9y4k03acdqq)" rx="10" ry="10" style="stroke: none; stroke-width: 1.0;"/><rect fill="#FEFECE" filter="url(#f9y4k03acdqq)" height="33.9688" rx="12.5" ry="12.5" style="stroke: #A80036; stroke-width: 1.5;" width="82" x="121" y="88.6982"/><text fill="#000000" font-family="sans-serif" font-size="12" lengthAdjust="spacingAndGlyphs" textLength="62" x="131" y="109.8369">Import file</text><rect fill="#FEFECE" filter="url(#f9y4k03acdqq)" height="33.9688" rx="12.5" ry="12.5" style="stroke: #A80036; stroke-width: 1.5;" width="80" x="20" y="201.667"/><text fill="#000000" font-family="sans-serif" font-size="12" lengthAdjust="spacingAndGlyphs" textLength="56" x="34" y="222.8057">File error</text><ellipse cx="60" cy="280.6357" fill="#FFFFFF" filter="url(#f9y4k03acdqq)" rx="10" ry="10" style="stroke: #000000; stroke-width: 1.5;"/><line style="stroke: #000000; stroke-width: 2.5;" x1="53.8128" x2="66.1872" y1="274.4486" y2="286.8229"/><line style="stroke: #000000; stroke-width: 2.5;" x1="66.1872" x2="53.8128" y1="274.4486" y2="286.8229"/><rect fill="#FEFECE" filter="url(#f9y4k03acdqq)" height="33.9688" rx="12.5" ry="12.5" style="stroke: #A80036; stroke-width: 1.5;" width="105" x="130" y="452.5732"/><text fill="#000000" font-family="sans-serif" font-size="12" lengthAdjust="spacingAndGlyphs" textLength="85" x="140" y="473.7119">Content error</text><ellipse cx="182.5" cy="531.542" fill="#FFFFFF" filter="url(#f9y4k03acdqq)" rx="10" ry="10" style="stroke: #000000; stroke-width: 1.5;"/><line style="stroke: #000000; stroke-width: 2.5;" x1="176.3128" x2="188.6872" y1="525.3548" y2="537.7292"/><line style="stroke: #000000; stroke-width: 2.5;" x1="188.6872" x2="176.3128" y1="525.3548" y2="537.7292"/><rect fill="#FEFECE" filter="url(#f9y4k03acdqq)" height="33.9688" rx="12.5" ry="12.5" style="stroke: #A80036; stroke-width: 1.5;" width="85" x="303" y="707.8818"/><text fill="#000000" font-family="sans-serif" font-size="12" lengthAdjust="spacingAndGlyphs" textLength="65" x="313" y="729.0205">User input</text><rect fill="#FEFECE" filter="url(#f9y4k03acdqq)" height="33.9688" rx="12.5" ry="12.5" style="stroke: #A80036; stroke-width: 1.5;" width="85" x="303" y="1080.5615"/><text fill="#000000" font-family="sans-serif" font-size="12" lengthAdjust="spacingAndGlyphs" textLength="65" x="313" y="1101.7002">User Input</text><rect fill="#FEFECE" filter="url(#f9y4k03acdqq)" height="33.9688" rx="12.5" ry="12.5" style="stroke: #A80036; stroke-width: 1.5;" width="85" x="303" y="1453.2412"/><text fill="#000000" font-family="sans-serif" font-size="12" lengthAdjust="spacingAndGlyphs" textLength="65" x="313" y="1474.3799">User Input</text><rect fill="#FEFECE" filter="url(#f9y4k03acdqq)" height="33.9688" rx="12.5" ry="12.5" style="stroke: #A80036; stroke-width: 1.5;" width="85" x="303" y="1825.9209"/><text fill="#000000" font-family="sans-serif" font-size="12" lengthAdjust="spacingAndGlyphs" textLength="65" x="313" y="1847.0596">User Input</text><rect fill="#FEFECE" filter="url(#f9y4k03acdqq)" height="33.9688" rx="12.5" ry="12.5" style="stroke: #A80036; stroke-width: 1.5;" width="82" x="304.5" y="2081.2295"/><text fill="#000000" font-family="sans-serif" font-size="12" lengthAdjust="spacingAndGlyphs" textLength="62" x="314.5" y="2102.3682">Validation</text><rect fill="#FEFECE" filter="url(#f9y4k03acdqq)" height="33.9688" rx="12.5" ry="12.5" style="stroke: #A80036; stroke-width: 1.5;" width="157" x="267" y="2426.0732"/><text fill="#000000" font-family="sans-serif" font-size="12" lengthAdjust="spacingAndGlyphs" textLength="137" x="277" y="2447.2119">Display imported data</text><ellipse cx="264" cy="2522.042" fill="#FFFFFF" filter="url(#f9y4k03acdqq)" rx="11" ry="11" style="stroke: #000000; stroke-width: 1.0;"/><ellipse cx="264" cy="2522.042" fill="#000000" rx="6" ry="6" style="stroke: #7F7F7F; stroke-width: 1.0;"/><rect fill="#FFF0F5" height="2536.2969" style="stroke: #FFF0F5; stroke-width: 1.0;" width="335" x="433" y="12.7451"/><polygon fill="#FEFECE" filter="url(#f9y4k03acdqq)" points="475,157.667,525,157.667,537,169.667,525,181.667,475,181.667,463,169.667,475,157.667" style="stroke: #A80036; stroke-width: 1.5;"/><text fill="#000000" font-family="sans-serif" font-size="11" lengthAdjust="spacingAndGlyphs" textLength="50" x="475" y="173.4751">file error</text><text fill="#000000" font-family="sans-serif" font-size="11" lengthAdjust="spacingAndGlyphs" textLength="20" x="443" y="167.0728">yes</text><text fill="#000000" font-family="sans-serif" font-size="11" lengthAdjust="spacingAndGlyphs" textLength="14" x="537" y="167.0728">no</text><rect fill="#FEFECE" filter="url(#f9y4k03acdqq)" height="33.9688" rx="12.5" ry="12.5" style="stroke: #A80036; stroke-width: 1.5;" width="133" x="535.5" y="339.6045"/><text fill="#000000" font-family="sans-serif" font-size="12" lengthAdjust="spacingAndGlyphs" textLength="113" x="545.5" y="360.7432">Missing treatment</text><polygon fill="#FEFECE" filter="url(#f9y4k03acdqq)" points="580.5,408.5732,623.5,408.5732,635.5,420.5732,623.5,432.5732,580.5,432.5732,568.5,420.5732,580.5,408.5732" style="stroke: #A80036; stroke-width: 1.5;"/><text fill="#000000" font-family="sans-serif" font-size="11" lengthAdjust="spacingAndGlyphs" textLength="43" x="580.5" y="424.3813">Missing</text><text fill="#000000" font-family="sans-serif" font-size="11" lengthAdjust="spacingAndGlyphs" textLength="20" x="548.5" y="417.979">yes</text><text fill="#000000" font-family="sans-serif" font-size="11" lengthAdjust="spacingAndGlyphs" textLength="14" x="635.5" y="417.979">no</text><rect fill="#FEFECE" filter="url(#f9y4k03acdqq)" height="33.9688" rx="12.5" ry="12.5" style="stroke: #A80036; stroke-width: 1.5;" width="81" x="643" y="452.5732"/><text fill="#000000" font-family="sans-serif" font-size="12" lengthAdjust="spacingAndGlyphs" textLength="61" x="653" y="473.7119">Typo Verif</text><polygon fill="#FEFECE" filter="url(#f9y4k03acdqq)" points="670,659.4795,697,659.4795,709,671.4795,697,683.4795,670,683.4795,658,671.4795,670,659.4795" style="stroke: #A80036; stroke-width: 1.5;"/><text fill="#000000" font-family="sans-serif" font-size="11" lengthAdjust="spacingAndGlyphs" textLength="20" x="687.5" y="693.6899">yes</text><text fill="#000000" font-family="sans-serif" font-size="11" lengthAdjust="spacingAndGlyphs" textLength="27" x="670" y="675.2876">Typo</text><text fill="#000000" font-family="sans-serif" font-size="11" lengthAdjust="spacingAndGlyphs" textLength="14" x="709" y="668.8853">no</text><polygon fill="#FEFECE" filter="url(#f9y4k03acdqq)" points="683.5,766.2529,695.5,778.2529,683.5,790.2529,671.5,778.2529,683.5,766.2529" style="stroke: #A80036; stroke-width: 1.5;"/><rect fill="#FEFECE" filter="url(#f9y4k03acdqq)" height="33.9688" rx="12.5" ry="12.5" style="stroke: #A80036; stroke-width: 1.5;" width="116" x="625.5" y="825.2529"/><text fill="#000000" font-family="sans-serif" font-size="12" lengthAdjust="spacingAndGlyphs" textLength="96" x="635.5" y="846.3916">Typo treatment</text><rect fill="#FEFECE" filter="url(#f9y4k03acdqq)" height="33.9688" rx="12.5" ry="12.5" style="stroke: #A80036; stroke-width: 1.5;" width="123" x="622" y="963.1904"/><text fill="#000000" font-family="sans-serif" font-size="12" lengthAdjust="spacingAndGlyphs" textLength="103" x="632" y="984.3291">More verification</text><polygon fill="#FEFECE" filter="url(#f9y4k03acdqq)" points="669.5,1032.1592,697.5,1032.1592,709.5,1044.1592,697.5,1056.1592,669.5,1056.1592,657.5,1044.1592,669.5,1032.1592" style="stroke: #A80036; stroke-width: 1.5;"/><text fill="#000000" font-family="sans-serif" font-size="11" lengthAdjust="spacingAndGlyphs" textLength="20" x="687.5" y="1066.3696">yes</text><text fill="#000000" font-family="sans-serif" font-size="11" lengthAdjust="spacingAndGlyphs" textLength="28" x="669.5" y="1047.9673">More</text><text fill="#000000" font-family="sans-serif" font-size="11" lengthAdjust="spacingAndGlyphs" textLength="14" x="709.5" y="1041.5649">no</text><polygon fill="#FEFECE" filter="url(#f9y4k03acdqq)" points="683.5,1138.9326,695.5,1150.9326,683.5,1162.9326,671.5,1150.9326,683.5,1138.9326" style="stroke: #A80036; stroke-width: 1.5;"/><rect fill="#FEFECE" filter="url(#f9y4k03acdqq)" height="33.9688" rx="12.5" ry="12.5" style="stroke: #A80036; stroke-width: 1.5;" width="118" x="624.5" y="1197.9326"/><text fill="#000000" font-family="sans-serif" font-size="12" lengthAdjust="spacingAndGlyphs" textLength="98" x="634.5" y="1219.0713">More treatment</text><rect fill="#FEFECE" filter="url(#f9y4k03acdqq)" height="33.9688" rx="12.5" ry="12.5" style="stroke: #A80036; stroke-width: 1.5;" width="120" x="623.5" y="1335.8701"/><text fill="#000000" font-family="sans-serif" font-size="12" lengthAdjust="spacingAndGlyphs" textLength="100" x="633.5" y="1357.0088">Less verification</text><polygon fill="#FEFECE" filter="url(#f9y4k03acdqq)" points="670,1404.8389,697,1404.8389,709,1416.8389,697,1428.8389,670,1428.8389,658,1416.8389,670,1404.8389" style="stroke: #A80036; stroke-width: 1.5;"/><text fill="#000000" font-family="sans-serif" font-size="11" lengthAdjust="spacingAndGlyphs" textLength="20" x="687.5" y="1439.0493">yes</text><text fill="#000000" font-family="sans-serif" font-size="11" lengthAdjust="spacingAndGlyphs" textLength="27" x="670" y="1420.647">Less</text><text fill="#000000" font-family="sans-serif" font-size="11" lengthAdjust="spacingAndGlyphs" textLength="14" x="709" y="1414.2446">no</text><polygon fill="#FEFECE" filter="url(#f9y4k03acdqq)" points="683.5,1511.6123,695.5,1523.6123,683.5,1535.6123,671.5,1523.6123,683.5,1511.6123" style="stroke: #A80036; stroke-width: 1.5;"/><rect fill="#FEFECE" filter="url(#f9y4k03acdqq)" height="33.9688" rx="12.5" ry="12.5" style="stroke: #A80036; stroke-width: 1.5;" width="115" x="626" y="1570.6123"/><text fill="#000000" font-family="sans-serif" font-size="12" lengthAdjust="spacingAndGlyphs" textLength="95" x="636" y="1591.751">Less treatment</text><rect fill="#FEFECE" filter="url(#f9y4k03acdqq)" height="33.9688" rx="12.5" ry="12.5" style="stroke: #A80036; stroke-width: 1.5;" width="151" x="608" y="1708.5498"/><text fill="#000000" font-family="sans-serif" font-size="12" lengthAdjust="spacingAndGlyphs" textLength="131" x="618" y="1729.6885">Duplicate verification</text><polygon fill="#FEFECE" filter="url(#f9y4k03acdqq)" points="654,1777.5186,713,1777.5186,725,1789.5186,713,1801.5186,654,1801.5186,642,1789.5186,654,1777.5186" style="stroke: #A80036; stroke-width: 1.5;"/><text fill="#000000" font-family="sans-serif" font-size="11" lengthAdjust="spacingAndGlyphs" textLength="20" x="687.5" y="1811.729">yes</text><text fill="#000000" font-family="sans-serif" font-size="11" lengthAdjust="spacingAndGlyphs" textLength="59" x="654" y="1793.3267">Duplicates</text><text fill="#000000" font-family="sans-serif" font-size="11" lengthAdjust="spacingAndGlyphs" textLength="14" x="725" y="1786.9243">no</text><polygon fill="#FEFECE" filter="url(#f9y4k03acdqq)" points="683.5,1884.292,695.5,1896.292,683.5,1908.292,671.5,1896.292,683.5,1884.292" style="stroke: #A80036; stroke-width: 1.5;"/><rect fill="#FEFECE" filter="url(#f9y4k03acdqq)" height="33.9688" rx="12.5" ry="12.5" style="stroke: #A80036; stroke-width: 1.5;" width="85" x="641" y="2012.2607"/><text fill="#000000" font-family="sans-serif" font-size="12" lengthAdjust="spacingAndGlyphs" textLength="65" x="651" y="2033.3994">Send data</text><rect fill="#FEFECE" filter="url(#f9y4k03acdqq)" height="33.9688" rx="12.5" ry="12.5" style="stroke: #A80036; stroke-width: 1.5;" width="138" x="614.5" y="2150.1982"/><text fill="#000000" font-family="sans-serif" font-size="12" lengthAdjust="spacingAndGlyphs" textLength="118" x="624.5" y="2171.3369">Validate treatment</text><rect fill="#FEFECE" filter="url(#f9y4k03acdqq)" height="33.9688" rx="12.5" ry="12.5" style="stroke: #A80036; stroke-width: 1.5;" width="130" x="618.5" y="2357.1045"/><text fill="#000000" font-family="sans-serif" font-size="12" lengthAdjust="spacingAndGlyphs" textLength="110" x="628.5" y="2378.2432">Update database</text><rect fill="#FFFFF0" height="2536.2969" style="stroke: #FFFFF0; stroke-width: 1.0;" width="260.5" x="768" y="12.7451"/><rect fill="#FEFECE" filter="url(#f9y4k03acdqq)" height="33.9688" rx="12.5" ry="12.5" style="stroke: #A80036; stroke-width: 1.5;" width="139" x="778" y="201.667"/><text fill="#000000" font-family="sans-serif" font-size="12" lengthAdjust="spacingAndGlyphs" textLength="119" x="788" y="222.8057">Create token state</text><rect fill="#FEFECE" filter="url(#f9y4k03acdqq)" height="33.9688" rx="12.5" ry="12.5" style="stroke: #A80036; stroke-width: 1.5;" width="102" x="796.5" y="270.6357"/><text fill="#000000" font-family="sans-serif" font-size="12" lengthAdjust="spacingAndGlyphs" textLength="82" x="806.5" y="291.7744">Create folder</text><rect fill="#FEFECE" filter="url(#f9y4k03acdqq)" height="33.9688" rx="12.5" ry="12.5" style="stroke: #A80036; stroke-width: 1.5;" width="154" x="852" y="521.542"/><text fill="#000000" font-family="sans-serif" font-size="12" lengthAdjust="spacingAndGlyphs" textLength="134" x="862" y="542.6807">Add new to to_create</text><rect fill="#FEFECE" filter="url(#f9y4k03acdqq)" height="33.9688" rx="12.5" ry="12.5" style="stroke: #A80036; stroke-width: 1.5;" width="181" x="838.5" y="590.5107"/><text fill="#000000" font-family="sans-serif" font-size="12" lengthAdjust="spacingAndGlyphs" textLength="161" x="848.5" y="611.6494">Add existing to to_update</text><rect fill="#FEFECE" filter="url(#f9y4k03acdqq)" height="33.9688" rx="12.5" ry="12.5" style="stroke: #A80036; stroke-width: 1.5;" width="108" x="875" y="894.2217"/><text fill="#000000" font-family="sans-serif" font-size="12" lengthAdjust="spacingAndGlyphs" textLength="88" x="885" y="915.3604">Update cache</text><rect fill="#FEFECE" filter="url(#f9y4k03acdqq)" height="33.9688" rx="12.5" ry="12.5" style="stroke: #A80036; stroke-width: 1.5;" width="134" x="862" y="1266.9014"/><text fill="#000000" font-family="sans-serif" font-size="12" lengthAdjust="spacingAndGlyphs" textLength="114" x="872" y="1288.04">Update to_update</text><rect fill="#FEFECE" filter="url(#f9y4k03acdqq)" height="33.9688" rx="12.5" ry="12.5" style="stroke: #A80036; stroke-width: 1.5;" width="134" x="862" y="1639.5811"/><text fill="#000000" font-family="sans-serif" font-size="12" lengthAdjust="spacingAndGlyphs" textLength="114" x="872" y="1660.7197">Update to_update</text><rect fill="#FEFECE" filter="url(#f9y4k03acdqq)" height="33.9688" rx="12.5" ry="12.5" style="stroke: #A80036; stroke-width: 1.5;" width="108" x="875" y="1943.292"/><text fill="#000000" font-family="sans-serif" font-size="12" lengthAdjust="spacingAndGlyphs" textLength="88" x="885" y="1964.4307">Update cache</text><rect fill="#FEFECE" filter="url(#f9y4k03acdqq)" height="33.9688" rx="12.5" ry="12.5" style="stroke: #A80036; stroke-width: 1.5;" width="110" x="874" y="2219.167"/><text fill="#000000" font-family="sans-serif" font-size="12" lengthAdjust="spacingAndGlyphs" textLength="90" x="884" y="2240.3057">Get to_update</text><rect fill="#FEFECE" filter="url(#f9y4k03acdqq)" height="33.9688" rx="12.5" ry="12.5" style="stroke: #A80036; stroke-width: 1.5;" width="106" x="876" y="2288.1357"/><text fill="#000000" font-family="sans-serif" font-size="12" lengthAdjust="spacingAndGlyphs" textLength="86" x="886" y="2309.2744">Get to_create</text><line style="stroke: #A80036; stroke-width: 1.5;" x1="162" x2="162" y1="53.6982" y2="88.6982"/><polygon fill="#A80036" points="158,78.6982,162,88.6982,166,78.6982,162,82.6982" style="stroke: #A80036; stroke-width: 1.0;"/><line style="stroke: #A80036; stroke-width: 1.5;" x1="60" x2="60" y1="235.6357" y2="270.6357"/><polygon fill="#A80036" points="56,260.6357,60,270.6357,64,260.6357,60,264.6357" style="stroke: #A80036; stroke-width: 1.0;"/><line style="stroke: #A80036; stroke-width: 1.5;" x1="182.5" x2="182.5" y1="486.542" y2="521.542"/><polygon fill="#A80036" points="178.5,511.542,182.5,521.542,186.5,511.542,182.5,515.542" style="stroke: #A80036; stroke-width: 1.0;"/><line style="stroke: #A80036; stroke-width: 1.5;" x1="709" x2="736" y1="671.4795" y2="671.4795"/><polygon fill="#A80036" points="732,714.8662,736,724.8662,740,714.8662,736,718.8662" style="stroke: #A80036; stroke-width: 1.5;"/><line style="stroke: #A80036; stroke-width: 1.5;" x1="736" x2="736" y1="671.4795" y2="778.2529"/><line style="stroke: #A80036; stroke-width: 1.5;" x1="736" x2="695.5" y1="778.2529" y2="778.2529"/><polygon fill="#A80036" points="705.5,774.2529,695.5,778.2529,705.5,782.2529,701.5,778.2529" style="stroke: #A80036; stroke-width: 1.0;"/><line style="stroke: #A80036; stroke-width: 1.5;" x1="683.5" x2="683.5" y1="790.2529" y2="825.2529"/><polygon fill="#A80036" points="679.5,815.2529,683.5,825.2529,687.5,815.2529,683.5,819.2529" style="stroke: #A80036; stroke-width: 1.0;"/><line style="stroke: #A80036; stroke-width: 1.5;" x1="709.5" x2="736" y1="1044.1592" y2="1044.1592"/><polygon fill="#A80036" points="732,1087.5459,736,1097.5459,740,1087.5459,736,1091.5459" style="stroke: #A80036; stroke-width: 1.5;"/><line style="stroke: #A80036; stroke-width: 1.5;" x1="736" x2="736" y1="1044.1592" y2="1150.9326"/><line style="stroke: #A80036; stroke-width: 1.5;" x1="736" x2="695.5" y1="1150.9326" y2="1150.9326"/><polygon fill="#A80036" points="705.5,1146.9326,695.5,1150.9326,705.5,1154.9326,701.5,1150.9326" style="stroke: #A80036; stroke-width: 1.0;"/><line style="stroke: #A80036; stroke-width: 1.5;" x1="683.5" x2="683.5" y1="997.1592" y2="1032.1592"/><polygon fill="#A80036" points="679.5,1022.1592,683.5,1032.1592,687.5,1022.1592,683.5,1026.1592" style="stroke: #A80036; stroke-width: 1.0;"/><line style="stroke: #A80036; stroke-width: 1.5;" x1="683.5" x2="683.5" y1="1162.9326" y2="1197.9326"/><polygon fill="#A80036" points="679.5,1187.9326,683.5,1197.9326,687.5,1187.9326,683.5,1191.9326" style="stroke: #A80036; stroke-width: 1.0;"/><line style="stroke: #A80036; stroke-width: 1.5;" x1="709" x2="736" y1="1416.8389" y2="1416.8389"/><polygon fill="#A80036" points="732,1460.2256,736,1470.2256,740,1460.2256,736,1464.2256" style="stroke: #A80036; stroke-width: 1.5;"/><line style="stroke: #A80036; stroke-width: 1.5;" x1="736" x2="736" y1="1416.8389" y2="1523.6123"/><line style="stroke: #A80036; stroke-width: 1.5;" x1="736" x2="695.5" y1="1523.6123" y2="1523.6123"/><polygon fill="#A80036" points="705.5,1519.6123,695.5,1523.6123,705.5,1527.6123,701.5,1523.6123" style="stroke: #A80036; stroke-width: 1.0;"/><line style="stroke: #A80036; stroke-width: 1.5;" x1="683.5" x2="683.5" y1="1369.8389" y2="1404.8389"/><polygon fill="#A80036" points="679.5,1394.8389,683.5,1404.8389,687.5,1394.8389,683.5,1398.8389" style="stroke: #A80036; stroke-width: 1.0;"/><line style="stroke: #A80036; stroke-width: 1.5;" x1="683.5" x2="683.5" y1="1535.6123" y2="1570.6123"/><polygon fill="#A80036" points="679.5,1560.6123,683.5,1570.6123,687.5,1560.6123,683.5,1564.6123" style="stroke: #A80036; stroke-width: 1.0;"/><line style="stroke: #A80036; stroke-width: 1.5;" x1="725" x2="737" y1="1789.5186" y2="1789.5186"/><polygon fill="#A80036" points="733,1832.9053,737,1842.9053,741,1832.9053,737,1836.9053" style="stroke: #A80036; stroke-width: 1.5;"/><line style="stroke: #A80036; stroke-width: 1.5;" x1="737" x2="737" y1="1789.5186" y2="1896.292"/><line style="stroke: #A80036; stroke-width: 1.5;" x1="737" x2="695.5" y1="1896.292" y2="1896.292"/><polygon fill="#A80036" points="705.5,1892.292,695.5,1896.292,705.5,1900.292,701.5,1896.292" style="stroke: #A80036; stroke-width: 1.0;"/><line style="stroke: #A80036; stroke-width: 1.5;" x1="683.5" x2="683.5" y1="1742.5186" y2="1777.5186"/><polygon fill="#A80036" points="679.5,1767.5186,683.5,1777.5186,687.5,1767.5186,683.5,1771.5186" style="stroke: #A80036; stroke-width: 1.0;"/><line style="stroke: #A80036; stroke-width: 1.5;" x1="635.5" x2="683.5" y1="420.5732" y2="420.5732"/><line style="stroke: #A80036; stroke-width: 1.5;" x1="683.5" x2="683.5" y1="420.5732" y2="452.5732"/><polygon fill="#A80036" points="679.5,442.5732,683.5,452.5732,687.5,442.5732,683.5,446.5732" style="stroke: #A80036; stroke-width: 1.0;"/><line style="stroke: #A80036; stroke-width: 1.5;" x1="602" x2="602" y1="373.5732" y2="408.5732"/><polygon fill="#A80036" points="598,398.5732,602,408.5732,606,398.5732,602,402.5732" style="stroke: #A80036; stroke-width: 1.0;"/><line style="stroke: #A80036; stroke-width: 1.5;" x1="847.5" x2="847.5" y1="235.6357" y2="270.6357"/><polygon fill="#A80036" points="843.5,260.6357,847.5,270.6357,851.5,260.6357,847.5,264.6357" style="stroke: #A80036; stroke-width: 1.0;"/><line style="stroke: #A80036; stroke-width: 1.5;" x1="929" x2="929" y1="555.5107" y2="590.5107"/><polygon fill="#A80036" points="925,580.5107,929,590.5107,933,580.5107,929,584.5107" style="stroke: #A80036; stroke-width: 1.0;"/><line style="stroke: #A80036; stroke-width: 1.5;" x1="929" x2="929" y1="2253.1357" y2="2288.1357"/><polygon fill="#A80036" points="925,2278.1357,929,2288.1357,933,2278.1357,929,2282.1357" style="stroke: #A80036; stroke-width: 1.0;"/><line style="stroke: #A80036; stroke-width: 1.5;" x1="847.5" x2="847.5" y1="304.6045" y2="322.1045"/><line style="stroke: #A80036; stroke-width: 1.5;" x1="847.5" x2="602" y1="322.1045" y2="322.1045"/><line style="stroke: #A80036; stroke-width: 1.5;" x1="602" x2="602" y1="322.1045" y2="339.6045"/><polygon fill="#A80036" points="598,329.6045,602,339.6045,606,329.6045,602,333.6045" style="stroke: #A80036; stroke-width: 1.0;"/><line style="stroke: #A80036; stroke-width: 1.5;" x1="683.5" x2="683.5" y1="486.542" y2="504.042"/><line style="stroke: #A80036; stroke-width: 1.5;" x1="683.5" x2="929" y1="504.042" y2="504.042"/><line style="stroke: #A80036; stroke-width: 1.5;" x1="929" x2="929" y1="504.042" y2="521.542"/><polygon fill="#A80036" points="925,511.542,929,521.542,933,511.542,929,515.542" style="stroke: #A80036; stroke-width: 1.0;"/><line style="stroke: #A80036; stroke-width: 1.5;" x1="683.5" x2="683.5" y1="683.4795" y2="695.6807"/><line style="stroke: #A80036; stroke-width: 1.5;" x1="683.5" x2="345.5" y1="695.6807" y2="695.6807"/><line style="stroke: #A80036; stroke-width: 1.5;" x1="345.5" x2="345.5" y1="695.6807" y2="707.8818"/><polygon fill="#A80036" points="341.5,697.8818,345.5,707.8818,349.5,697.8818,345.5,701.8818" style="stroke: #A80036; stroke-width: 1.0;"/><line style="stroke: #A80036; stroke-width: 1.5;" x1="345.5" x2="345.5" y1="741.8506" y2="754.0518"/><line style="stroke: #A80036; stroke-width: 1.5;" x1="345.5" x2="683.5" y1="754.0518" y2="754.0518"/><line style="stroke: #A80036; stroke-width: 1.5;" x1="683.5" x2="683.5" y1="754.0518" y2="766.2529"/><polygon fill="#A80036" points="679.5,756.2529,683.5,766.2529,687.5,756.2529,683.5,760.2529" style="stroke: #A80036; stroke-width: 1.0;"/><line style="stroke: #A80036; stroke-width: 1.5;" x1="929" x2="929" y1="624.4795" y2="641.9795"/><line style="stroke: #A80036; stroke-width: 1.5;" x1="929" x2="683.5" y1="641.9795" y2="641.9795"/><line style="stroke: #A80036; stroke-width: 1.5;" x1="683.5" x2="683.5" y1="641.9795" y2="659.4795"/><polygon fill="#A80036" points="679.5,649.4795,683.5,659.4795,687.5,649.4795,683.5,653.4795" style="stroke: #A80036; stroke-width: 1.0;"/><line style="stroke: #A80036; stroke-width: 1.5;" x1="683.5" x2="683.5" y1="859.2217" y2="876.7217"/><line style="stroke: #A80036; stroke-width: 1.5;" x1="683.5" x2="929" y1="876.7217" y2="876.7217"/><line style="stroke: #A80036; stroke-width: 1.5;" x1="929" x2="929" y1="876.7217" y2="894.2217"/><polygon fill="#A80036" points="925,884.2217,929,894.2217,933,884.2217,929,888.2217" style="stroke: #A80036; stroke-width: 1.0;"/><line style="stroke: #A80036; stroke-width: 1.5;" x1="929" x2="929" y1="928.1904" y2="945.6904"/><line style="stroke: #A80036; stroke-width: 1.5;" x1="929" x2="683.5" y1="945.6904" y2="945.6904"/><line style="stroke: #A80036; stroke-width: 1.5;" x1="683.5" x2="683.5" y1="945.6904" y2="963.1904"/><polygon fill="#A80036" points="679.5,953.1904,683.5,963.1904,687.5,953.1904,683.5,957.1904" style="stroke: #A80036; stroke-width: 1.0;"/><line style="stroke: #A80036; stroke-width: 1.5;" x1="683.5" x2="683.5" y1="1056.1592" y2="1068.3604"/><line style="stroke: #A80036; stroke-width: 1.5;" x1="683.5" x2="345.5" y1="1068.3604" y2="1068.3604"/><line style="stroke: #A80036; stroke-width: 1.5;" x1="345.5" x2="345.5" y1="1068.3604" y2="1080.5615"/><polygon fill="#A80036" points="341.5,1070.5615,345.5,1080.5615,349.5,1070.5615,345.5,1074.5615" style="stroke: #A80036; stroke-width: 1.0;"/><line style="stroke: #A80036; stroke-width: 1.5;" x1="345.5" x2="345.5" y1="1114.5303" y2="1126.7314"/><line style="stroke: #A80036; stroke-width: 1.5;" x1="345.5" x2="683.5" y1="1126.7314" y2="1126.7314"/><line style="stroke: #A80036; stroke-width: 1.5;" x1="683.5" x2="683.5" y1="1126.7314" y2="1138.9326"/><polygon fill="#A80036" points="679.5,1128.9326,683.5,1138.9326,687.5,1128.9326,683.5,1132.9326" style="stroke: #A80036; stroke-width: 1.0;"/><line style="stroke: #A80036; stroke-width: 1.5;" x1="683.5" x2="683.5" y1="1231.9014" y2="1249.4014"/><line style="stroke: #A80036; stroke-width: 1.5;" x1="683.5" x2="929" y1="1249.4014" y2="1249.4014"/><line style="stroke: #A80036; stroke-width: 1.5;" x1="929" x2="929" y1="1249.4014" y2="1266.9014"/><polygon fill="#A80036" points="925,1256.9014,929,1266.9014,933,1256.9014,929,1260.9014" style="stroke: #A80036; stroke-width: 1.0;"/><line style="stroke: #A80036; stroke-width: 1.5;" x1="929" x2="929" y1="1300.8701" y2="1318.3701"/><line style="stroke: #A80036; stroke-width: 1.5;" x1="929" x2="683.5" y1="1318.3701" y2="1318.3701"/><line style="stroke: #A80036; stroke-width: 1.5;" x1="683.5" x2="683.5" y1="1318.3701" y2="1335.8701"/><polygon fill="#A80036" points="679.5,1325.8701,683.5,1335.8701,687.5,1325.8701,683.5,1329.8701" style="stroke: #A80036; stroke-width: 1.0;"/><line style="stroke: #A80036; stroke-width: 1.5;" x1="683.5" x2="683.5" y1="1428.8389" y2="1441.04"/><line style="stroke: #A80036; stroke-width: 1.5;" x1="683.5" x2="345.5" y1="1441.04" y2="1441.04"/><line style="stroke: #A80036; stroke-width: 1.5;" x1="345.5" x2="345.5" y1="1441.04" y2="1453.2412"/><polygon fill="#A80036" points="341.5,1443.2412,345.5,1453.2412,349.5,1443.2412,345.5,1447.2412" style="stroke: #A80036; stroke-width: 1.0;"/><line style="stroke: #A80036; stroke-width: 1.5;" x1="345.5" x2="345.5" y1="1487.21" y2="1499.4111"/><line style="stroke: #A80036; stroke-width: 1.5;" x1="345.5" x2="683.5" y1="1499.4111" y2="1499.4111"/><line style="stroke: #A80036; stroke-width: 1.5;" x1="683.5" x2="683.5" y1="1499.4111" y2="1511.6123"/><polygon fill="#A80036" points="679.5,1501.6123,683.5,1511.6123,687.5,1501.6123,683.5,1505.6123" style="stroke: #A80036; stroke-width: 1.0;"/><line style="stroke: #A80036; stroke-width: 1.5;" x1="683.5" x2="683.5" y1="1604.5811" y2="1622.0811"/><line style="stroke: #A80036; stroke-width: 1.5;" x1="683.5" x2="929" y1="1622.0811" y2="1622.0811"/><line style="stroke: #A80036; stroke-width: 1.5;" x1="929" x2="929" y1="1622.0811" y2="1639.5811"/><polygon fill="#A80036" points="925,1629.5811,929,1639.5811,933,1629.5811,929,1633.5811" style="stroke: #A80036; stroke-width: 1.0;"/><line style="stroke: #A80036; stroke-width: 1.5;" x1="929" x2="929" y1="1673.5498" y2="1691.0498"/><line style="stroke: #A80036; stroke-width: 1.5;" x1="929" x2="683.5" y1="1691.0498" y2="1691.0498"/><line style="stroke: #A80036; stroke-width: 1.5;" x1="683.5" x2="683.5" y1="1691.0498" y2="1708.5498"/><polygon fill="#A80036" points="679.5,1698.5498,683.5,1708.5498,687.5,1698.5498,683.5,1702.5498" style="stroke: #A80036; stroke-width: 1.0;"/><line style="stroke: #A80036; stroke-width: 1.5;" x1="683.5" x2="683.5" y1="1801.5186" y2="1813.7197"/><line style="stroke: #A80036; stroke-width: 1.5;" x1="683.5" x2="345.5" y1="1813.7197" y2="1813.7197"/><line style="stroke: #A80036; stroke-width: 1.5;" x1="345.5" x2="345.5" y1="1813.7197" y2="1825.9209"/><polygon fill="#A80036" points="341.5,1815.9209,345.5,1825.9209,349.5,1815.9209,345.5,1819.9209" style="stroke: #A80036; stroke-width: 1.0;"/><line style="stroke: #A80036; stroke-width: 1.5;" x1="345.5" x2="345.5" y1="1859.8896" y2="1872.0908"/><line style="stroke: #A80036; stroke-width: 1.5;" x1="345.5" x2="683.5" y1="1872.0908" y2="1872.0908"/><line style="stroke: #A80036; stroke-width: 1.5;" x1="683.5" x2="683.5" y1="1872.0908" y2="1884.292"/><polygon fill="#A80036" points="679.5,1874.292,683.5,1884.292,687.5,1874.292,683.5,1878.292" style="stroke: #A80036; stroke-width: 1.0;"/><line style="stroke: #A80036; stroke-width: 1.5;" x1="683.5" x2="683.5" y1="1908.292" y2="1925.792"/><line style="stroke: #A80036; stroke-width: 1.5;" x1="683.5" x2="929" y1="1925.792" y2="1925.792"/><line style="stroke: #A80036; stroke-width: 1.5;" x1="929" x2="929" y1="1925.792" y2="1943.292"/><polygon fill="#A80036" points="925,1933.292,929,1943.292,933,1933.292,929,1937.292" style="stroke: #A80036; stroke-width: 1.0;"/><line style="stroke: #A80036; stroke-width: 1.5;" x1="929" x2="929" y1="1977.2607" y2="1994.7607"/><line style="stroke: #A80036; stroke-width: 1.5;" x1="929" x2="683.5" y1="1994.7607" y2="1994.7607"/><line style="stroke: #A80036; stroke-width: 1.5;" x1="683.5" x2="683.5" y1="1994.7607" y2="2012.2607"/><polygon fill="#A80036" points="679.5,2002.2607,683.5,2012.2607,687.5,2002.2607,683.5,2006.2607" style="stroke: #A80036; stroke-width: 1.0;"/><line style="stroke: #A80036; stroke-width: 1.5;" x1="683.5" x2="683.5" y1="2046.2295" y2="2063.7295"/><line style="stroke: #A80036; stroke-width: 1.5;" x1="683.5" x2="345.5" y1="2063.7295" y2="2063.7295"/><line style="stroke: #A80036; stroke-width: 1.5;" x1="345.5" x2="345.5" y1="2063.7295" y2="2081.2295"/><polygon fill="#A80036" points="341.5,2071.2295,345.5,2081.2295,349.5,2071.2295,345.5,2075.2295" style="stroke: #A80036; stroke-width: 1.0;"/><line style="stroke: #A80036; stroke-width: 1.5;" x1="345.5" x2="345.5" y1="2115.1982" y2="2132.6982"/><line style="stroke: #A80036; stroke-width: 1.5;" x1="345.5" x2="683.5" y1="2132.6982" y2="2132.6982"/><line style="stroke: #A80036; stroke-width: 1.5;" x1="683.5" x2="683.5" y1="2132.6982" y2="2150.1982"/><polygon fill="#A80036" points="679.5,2140.1982,683.5,2150.1982,687.5,2140.1982,683.5,2144.1982" style="stroke: #A80036; stroke-width: 1.0;"/><line style="stroke: #A80036; stroke-width: 1.5;" x1="683.5" x2="683.5" y1="2184.167" y2="2201.667"/><line style="stroke: #A80036; stroke-width: 1.5;" x1="683.5" x2="929" y1="2201.667" y2="2201.667"/><line style="stroke: #A80036; stroke-width: 1.5;" x1="929" x2="929" y1="2201.667" y2="2219.167"/><polygon fill="#A80036" points="925,2209.167,929,2219.167,933,2209.167,929,2213.167" style="stroke: #A80036; stroke-width: 1.0;"/><line style="stroke: #A80036; stroke-width: 1.5;" x1="929" x2="929" y1="2322.1045" y2="2339.6045"/><line style="stroke: #A80036; stroke-width: 1.5;" x1="929" x2="683.5" y1="2339.6045" y2="2339.6045"/><line style="stroke: #A80036; stroke-width: 1.5;" x1="683.5" x2="683.5" y1="2339.6045" y2="2357.1045"/><polygon fill="#A80036" points="679.5,2347.1045,683.5,2357.1045,687.5,2347.1045,683.5,2351.1045" style="stroke: #A80036; stroke-width: 1.0;"/><line style="stroke: #A80036; stroke-width: 1.5;" x1="683.5" x2="683.5" y1="2391.0732" y2="2408.5732"/><line style="stroke: #A80036; stroke-width: 1.5;" x1="683.5" x2="345.5" y1="2408.5732" y2="2408.5732"/><line style="stroke: #A80036; stroke-width: 1.5;" x1="345.5" x2="345.5" y1="2408.5732" y2="2426.0732"/><polygon fill="#A80036" points="341.5,2416.0732,345.5,2426.0732,349.5,2416.0732,345.5,2420.0732" style="stroke: #A80036; stroke-width: 1.0;"/><line style="stroke: #A80036; stroke-width: 1.5;" x1="568.5" x2="182.5" y1="420.5732" y2="420.5732"/><line style="stroke: #A80036; stroke-width: 1.5;" x1="182.5" x2="182.5" y1="420.5732" y2="452.5732"/><polygon fill="#A80036" points="178.5,442.5732,182.5,452.5732,186.5,442.5732,182.5,446.5732" style="stroke: #A80036; stroke-width: 1.0;"/><line style="stroke: #A80036; stroke-width: 1.5;" x1="345.5" x2="345.5" y1="2460.042" y2="2493.542"/><line style="stroke: #A80036; stroke-width: 1.5;" x1="345.5" x2="264" y1="2493.542" y2="2493.542"/><line style="stroke: #A80036; stroke-width: 1.5;" x1="264" x2="264" y1="2493.542" y2="2511.042"/><polygon fill="#A80036" points="260,2501.042,264,2511.042,268,2501.042,264,2505.042" style="stroke: #A80036; stroke-width: 1.0;"/><line style="stroke: #A80036; stroke-width: 1.5;" x1="463" x2="60" y1="169.667" y2="169.667"/><line style="stroke: #A80036; stroke-width: 1.5;" x1="60" x2="60" y1="169.667" y2="201.667"/><polygon fill="#A80036" points="56,191.667,60,201.667,64,191.667,60,195.667" style="stroke: #A80036; stroke-width: 1.0;"/><line style="stroke: #A80036; stroke-width: 1.5;" x1="537" x2="847.5" y1="169.667" y2="169.667"/><line style="stroke: #A80036; stroke-width: 1.5;" x1="847.5" x2="847.5" y1="169.667" y2="201.667"/><polygon fill="#A80036" points="843.5,191.667,847.5,201.667,851.5,191.667,847.5,195.667" style="stroke: #A80036; stroke-width: 1.0;"/><line style="stroke: #A80036; stroke-width: 1.5;" x1="162" x2="162" y1="122.667" y2="140.167"/><line style="stroke: #A80036; stroke-width: 1.5;" x1="162" x2="500" y1="140.167" y2="140.167"/><line style="stroke: #A80036; stroke-width: 1.5;" x1="500" x2="500" y1="140.167" y2="157.667"/><polygon fill="#A80036" points="496,147.667,500,157.667,504,147.667,500,151.667" style="stroke: #A80036; stroke-width: 1.0;"/><text fill="#000000" font-family="sans-serif" font-size="18" lengthAdjust="spacingAndGlyphs" textLength="52" x="195.5" y="29.4531">Client</text><text fill="#000000" font-family="sans-serif" font-size="18" lengthAdjust="spacingAndGlyphs" textLength="60" x="570.5" y="29.4531">Server</text><text fill="#000000" font-family="sans-serif" font-size="18" lengthAdjust="spacingAndGlyphs" textLength="54" x="871.25" y="29.4531">Cache</text><line style="stroke: #000000; stroke-width: 2.0;" x1="10" x2="10" y1="12.7451" y2="2549.042"/><line style="stroke: #000000; stroke-width: 2.0;" x1="433" x2="433" y1="12.7451" y2="2549.042"/><line style="stroke: #000000; stroke-width: 2.0;" x1="768" x2="768" y1="12.7451" y2="2549.042"/><line style="stroke: #000000; stroke-width: 2.0;" x1="1028.5" x2="1028.5" y1="12.7451" y2="2549.042"/><!--
@startuml

|#AliceBlue|Client|
start
:Import file;
|#LavenderBlush|Server|
if (file error) then (yes)
    |Client|
    - File error
    end
else (no)
    |#Ivory|Cache|
    -Create token state
    -Create folder
    |Server|
    -Missing treatment
    if (Missing) then (yes)
        |Client|
        -Content error
        end
    else (no)
        |Server|
        -Typo Verif
        |Cache|
        -Add new to to_create
        -Add existing to to_update
        |Server|
        if (Typo) then (yes)
            |Client|
            -User input
        else (no)
        endif
        |Server|
        -Typo treatment
        |Cache|
        -Update cache
        |Server|
        -More verification
        if (More) then (yes) 
            |Client|
            -User Input
        else (no)
        endif
        |Server|
        -More treatment
        |Cache|
        -Update to_update
        |Server|
        -Less verification
        if (Less) then (yes) 
            |Client|
            -User Input
        else (no)
        endif
        |Server|
        -Less treatment
        |Cache|
        -Update to_update
        |Server|
        -Duplicate verification
        if (Duplicates) then (yes)
            |Client|
            -User Input
        else (no)
        endif
        |Cache|
        -Update cache
        |Server|
        -Send data
        |Client|
        -Validation
        |Server|
        -Validate treatment
        |Cache|
        -Get to_update
        -Get to_create
        |Server|
        -Update database
        |Client|
        -Display imported data        
endif
stop


@enduml

PlantUML version 1.2019.03(Sun Mar 10 12:04:44 CET 2019)
(GPL source distribution)
Java Runtime: Java(TM) SE Runtime Environment
JVM: Java HotSpot(TM) 64-Bit Server VM
Java Version: 1.8.0_201-b09
Operating System: Linux
OS Version: 4.15.0-47-generic
Default Encoding: UTF-8
Language: en
Country: US
--></g></svg>